<svg id="visual" viewBox="0 0 900 152" width="900" height="300" xmlns="http://www.w3.org/2000/svg" xmlns:xlink="http://www.w3.org/1999/xlink" version="1.1"><rect x="0" y="0" width="900" height="300" fill="#001220"></rect><path d="M0 104L21.5 102.7C43 101.3 86 98.7 128.8 98.2C171.7 97.7 214.3 99.3 257.2 103.7C300 108 343 115 385.8 117.2C428.7 119.3 471.3 116.7 514.2 112C557 107.3 600 100.7 642.8 97C685.7 93.3 728.3 92.7 771.2 94C814 95.3 857 98.7 878.5 100.3L900 102L900 0L878.5 0C857 0 814 0 771.2 0C728.3 0 685.7 0 642.8 0C600 0 557 0 514.2 0C471.3 0 428.7 0 385.8 0C343 0 300 0 257.2 0C214.3 0 171.7 0 128.8 0C86 0 43 0 21.5 0L0 0Z" fill="#2e39a2"></path><path d="M0 78L21.5 77.8C43 77.7 86 77.3 128.8 78.8C171.7 80.3 214.3 83.7 257.2 85.7C300 87.7 343 88.3 385.8 86.8C428.7 85.3 471.3 81.7 514.2 83.2C557 84.7 600 91.3 642.8 91.3C685.7 91.3 728.3 84.7 771.2 80.2C814 75.7 857 73.3 878.5 72.2L900 71L900 0L878.5 0C857 0 814 0 771.2 0C728.3 0 685.7 0 642.8 0C600 0 557 0 514.2 0C471.3 0 428.7 0 385.8 0C343 0 300 0 257.2 0C214.3 0 171.7 0 128.8 0C86 0 43 0 21.5 0L0 0Z" fill="#5845b9"></path><path d="M0 62L21.5 62C43 62 86 62 128.8 60.8C171.7 59.7 214.3 57.3 257.2 56.8C300 56.3 343 57.7 385.8 61C428.7 64.3 471.3 69.7 514.2 68.7C557 67.7 600 60.3 642.8 55.3C685.7 50.3 728.3 47.7 771.2 48C814 48.3 857 51.7 878.5 53.3L900 55L900 0L878.5 0C857 0 814 0 771.2 0C728.3 0 685.7 0 642.8 0C600 0 557 0 514.2 0C471.3 0 428.7 0 385.8 0C343 0 300 0 257.2 0C214.3 0 171.7 0 128.8 0C86 0 43 0 21.5 0L0 0Z" fill="#7e51d0"></path><path d="M0 34L21.5 34.5C43 35 86 36 128.8 35C171.7 34 214.3 31 257.2 31.3C300 31.7 343 35.3 385.8 35.5C428.7 35.7 471.3 32.3 514.2 31.7C557 31 600 33 642.8 33C685.7 33 728.3 31 771.2 33.3C814 35.7 857 42.3 878.5 45.7L900 49L900 0L878.5 0C857 0 814 0 771.2 0C728.3 0 685.7 0 642.8 0C600 0 557 0 514.2 0C471.3 0 428.7 0 385.8 0C343 0 300 0 257.2 0C214.3 0 171.7 0 128.8 0C86 0 43 0 21.5 0L0 0Z" fill="#a45de6"></path><path d="M0 25L21.5 23.8C43 22.7 86 20.3 128.8 19.8C171.7 19.3 214.3 20.7 257.2 19.8C300 19 343 16 385.8 14.3C428.7 12.7 471.3 12.3 514.2 15.8C557 19.3 600 26.7 642.8 29.8C685.7 33 728.3 32 771.2 28.8C814 25.7 857 20.3 878.5 17.7L900 15L900 0L878.5 0C857 0 814 0 771.2 0C728.3 0 685.7 0 642.8 0C600 0 557 0 514.2 0C471.3 0 428.7 0 385.8 0C343 0 300 0 257.2 0C214.3 0 171.7 0 128.8 0C86 0 43 0 21.5 0L0 0Z" fill="#ca69fa"></path></svg>
